<svg id="Layer_1" data-name="Layer 1" xmlns="http://www.w3.org/2000/svg" viewBox="0 0 1280 1024"><defs><style>.cls-1{font-size:550px;font-family:Impact;}.cls-1,.cls-2{fill:#fff;stroke:#f2f2f2;stroke-miterlimit:10;}</style></defs><text class="cls-1" transform="translate(715.13 710.04)">G</text><path class="cls-2" d="M287.84,238.69C279.63,273,293.63,311,323.15,335.8c4.76,13.63,17.6,25.83,35,31.33,16.07,5.09,32.27,3.25,43.89-3.71a34.93,34.93,0,0,0,13.08-13.36,31.37,31.37,0,0,0,2.29-5.42c6.56-20.7-9.35-44.21-35.53-52.49-18.4-5.83-37-2.58-48.66,7.05-11.35-18.15-16.77-38.76-9.25-54.77,10.25-21.85,43-31.81,76.27-28.27a56.93,56.93,0,0,1,35.24,17.37l2.15,2.3c10.23,11.17,16.7,21.24,23.91,33.34,6.63,11.14,14.71,25.35,23.52,42.49l9.4,24.18.64,2.48a328.12,328.12,0,0,1,5.85,215.75C461.65,678.19,355.7,762.72,235.06,780.67c153,24.52,305.75-68,354.7-222.66,42.17-133.25-5.2-273.08-108.19-352.71a307.72,307.72,0,0,0-47.28-30.18A111.62,111.62,0,0,0,403.12,168a130.48,130.48,0,0,0-42.62,4.23l-2.61.72C326.58,182,296.41,202.81,287.84,238.69Z"/><ellipse class="cls-2" cx="663" cy="361" rx="38.5" ry="33.5"/><ellipse class="cls-2" cx="663" cy="599" rx="38.5" ry="33.5"/><text class="cls-1" transform="translate(13.81 701.04)">E</text><text/><text class="cls-1" transform="translate(1033.98 709.93)">E</text></svg>