<svg id="Layer_1" data-name="Layer 1" xmlns="http://www.w3.org/2000/svg" viewBox="0 0 1280 1024"><defs><style>.cls-1{font-size:400px;font-family:Impact;}.cls-2{stroke:#000;stroke-miterlimit:10;}</style></defs><text class="cls-1" transform="translate(828.13 460.39)">e</text><path class="cls-2" d="M510.52,286.5c-10.57,37.61,3.25,80.22,34.8,108.88,4.66,15.27,18.33,29.32,37.29,36.16,17.55,6.32,35.53,5,48.69-2.19a38.69,38.69,0,0,0,15-14.2,35.26,35.26,0,0,0,2.77-5.89c8.14-22.59-8.42-49.27-37-59.57-20.08-7.24-40.76-4.46-54.08,5.68-11.76-20.57-16.85-43.58-7.84-60.95,12.28-23.7,48.9-33.28,85.53-27.92a63,63,0,0,1,38.2,20.74c.75.85,1.51,1.73,2.27,2.63,10.83,12.79,17.54,24.2,25,37.9,6.85,12.6,15.15,28.65,24.14,48l9.34,27.13.6,2.78a362.93,362.93,0,0,1-2.94,238.73C683.48,779.88,562.69,868.7,428.56,883.28c168.06,33.77,340.91-61.82,401.76-230.66,52.43-145.45,6.16-302.07-104.2-394.58a341,341,0,0,0-50.94-35.42,124.33,124.33,0,0,0-34.15-9.2,144.82,144.82,0,0,0-47.3,2.82q-1.46.33-2.91.69C555.81,225.48,521.56,247.21,510.52,286.5Z"/><ellipse class="cls-2" cx="938" cy="512" rx="38.5" ry="33.5"/><ellipse class="cls-2" cx="938" cy="681" rx="38.5" ry="33.5"/><text class="cls-1" transform="translate(83.81 443.39)">ed</text><text/></svg>