<svg id="Layer_1" data-name="Layer 1" xmlns="http://www.w3.org/2000/svg" viewBox="0 0 1280 1024"><defs><style>.cls-1{font-size:600px;font-family:Impact;}.cls-2{stroke:#000;stroke-miterlimit:10;}</style></defs><text class="cls-1" transform="translate(693.13 743.59)">GE</text><path class="cls-2" d="M253,215.44c-9.07,38,6.41,80,39.06,107.42,5.27,15.09,19.48,28.58,38.7,34.67,17.78,5.62,35.7,3.59,48.56-4.1a38.71,38.71,0,0,0,14.46-14.79,34.53,34.53,0,0,0,2.54-6c7.25-22.9-10.35-48.9-39.31-58.07-20.36-6.44-40.91-2.86-53.82,7.8-12.56-20.08-18.55-42.87-10.24-60.59,11.34-24.16,47.55-35.18,84.37-31.27a63,63,0,0,1,39,19.22c.77.82,1.57,1.67,2.37,2.54,11.32,12.36,18.47,23.49,26.45,36.88,7.34,12.32,16.27,28,26,47l10.4,26.75.7,2.75a362.84,362.84,0,0,1,6.47,238.66C445.27,701.62,328.08,795.13,194.63,815,363.89,842.11,532.84,739.78,587,568.68c46.65-147.41-5.75-302.09-119.67-390.17A341.26,341.26,0,0,0,415,145.12a123.84,123.84,0,0,0-34.48-7.84A144.43,144.43,0,0,0,333.38,142c-1,.25-1.93.52-2.88.8C295.86,152.69,262.48,175.75,253,215.44Z"/><ellipse class="cls-2" cx="655" cy="370" rx="38.5" ry="33.5"/><ellipse class="cls-2" cx="655" cy="524" rx="38.5" ry="33.5"/><text class="cls-1" transform="translate(9.81 743.59)">E</text><text/></svg>