<svg id="Layer_1" data-name="Layer 1" xmlns="http://www.w3.org/2000/svg" viewBox="0 0 1280 1024"><defs><style>.cls-1{stroke:#000;stroke-miterlimit:10;}.cls-2{font-size:400px;font-family:Impact;}</style></defs><path class="cls-1" d="M497.74,288.5c2.81,39,30.26,74.37,69.65,90.63,9.57,12.79,27.19,21.37,47.35,21.37,18.65,0,35.12-7.34,45.06-18.56a38.67,38.67,0,0,0,9.33-18.46,34.8,34.8,0,0,0,.61-6.48c0-24-24.62-43.5-55-43.5-21.35,0-39.86,9.62-49,23.68-18-15.36-30.62-35.28-28-54.68,3.52-26.46,34.72-47.89,71-55.27a63,63,0,0,1,43,6.56c1,.55,2,1.12,3,1.71,14.52,8.36,24.7,16.82,36.35,27.18,10.71,9.53,24,21.82,39,37l18,22.36,1.5,2.41A362.93,362.93,0,0,1,827.74,550c0,144-83.52,268.52-204.76,327.72C792.54,852.5,922.74,704,922.74,524.5c0-154.61-96.63-286.27-231.82-335.88A341.83,341.83,0,0,0,631,172.57a124.1,124.1,0,0,0-35.24,2.93,144.52,144.52,0,0,0-43.54,18.69c-.84.53-1.68,1.08-2.51,1.63C519.66,215.74,494.8,247.8,497.74,288.5Z"/><ellipse class="cls-1" cx="957" cy="241" rx="38.5" ry="33.5"/><ellipse class="cls-1" cx="957" cy="385" rx="38.5" ry="33.5"/><text class="cls-2" transform="translate(83.81 443.39)">ed</text><text class="cls-2" transform="translate(1028.13 449.39)">e</text><text/></svg>